<?xml version="1.0" encoding="UTF-8"?>
<svg xmlns="http://www.w3.org/2000/svg" width="701" height="69">
   <defs>
      <style type="text/css">
    @namespace "http://www.w3.org/2000/svg";
    .line                 {fill: none; stroke: #332900; stroke-width: 1;}
    .bold-line            {stroke: #141000; shape-rendering: crispEdges; stroke-width: 2;}
    .thin-line            {stroke: #1F1800; shape-rendering: crispEdges}
    .filled               {fill: #332900; stroke: none;}
    text.terminal         {font-family: Verdana, Sans-serif;
                            font-size: 12px;
                            fill: #141000;
                            font-weight: bold;
                          }
    text.nonterminal      {font-family: Verdana, Sans-serif;
                            font-size: 12px;
                            fill: #1A1400;
                            font-weight: normal;
                          }
    text.regexp           {font-family: Verdana, Sans-serif;
                            font-size: 12px;
                            fill: #1F1800;
                            font-weight: normal;
                          }
    rect, circle, polygon {fill: #332900; stroke: #332900;}
    rect.terminal         {fill: #FFDB4D; stroke: #332900; stroke-width: 1;}
    rect.nonterminal      {fill: #FFEC9E; stroke: #332900; stroke-width: 1;}
    rect.text             {fill: none; stroke: none;}
    polygon.regexp        {fill: #FFF4C7; stroke: #332900; stroke-width: 1;}
  </style>
   </defs>
   <polygon points="9 17 1 13 1 21"/>
   <polygon points="17 17 9 13 9 21"/>
   <rect x="31" y="3" width="42" height="32" rx="10"/>
   <rect x="29"
         y="1"
         width="42"
         height="32"
         class="terminal"
         rx="10"/>
   <text class="terminal" x="39" y="21">def</text>
   <a xmlns:xlink="http://www.w3.org/1999/xlink"
      xlink:href="#identifier"
      xlink:title="identifier">
      <rect x="93" y="3" width="76" height="32"/>
      <rect x="91" y="1" width="76" height="32" class="nonterminal"/>
      <text class="nonterminal" x="101" y="21">identifier</text>
   </a>
   <rect x="189" y="3" width="26" height="32" rx="10"/>
   <rect x="187"
         y="1"
         width="26"
         height="32"
         class="terminal"
         rx="10"/>
   <text class="terminal" x="197" y="21">(</text>
   <a xmlns:xlink="http://www.w3.org/1999/xlink"
      xlink:href="#parameter_list"
      xlink:title="parameter_list">
      <rect x="255" y="35" width="112" height="32"/>
      <rect x="253" y="33" width="112" height="32" class="nonterminal"/>
      <text class="nonterminal" x="263" y="53">parameter_list</text>
   </a>
   <rect x="407" y="3" width="26" height="32" rx="10"/>
   <rect x="405"
         y="1"
         width="26"
         height="32"
         class="terminal"
         rx="10"/>
   <text class="terminal" x="415" y="21">)</text>
   <rect x="453" y="3" width="36" height="32" rx="10"/>
   <rect x="451"
         y="1"
         width="36"
         height="32"
         class="terminal"
         rx="10"/>
   <text class="terminal" x="461" y="21">-&gt;</text>
   <a xmlns:xlink="http://www.w3.org/1999/xlink"
      xlink:href="#type"
      xlink:title="type">
      <rect x="509" y="3" width="48" height="32"/>
      <rect x="507" y="1" width="48" height="32" class="nonterminal"/>
      <text class="nonterminal" x="517" y="21">type</text>
   </a>
   <rect x="577" y="3" width="24" height="32" rx="10"/>
   <rect x="575"
         y="1"
         width="24"
         height="32"
         class="terminal"
         rx="10"/>
   <text class="terminal" x="585" y="21">:</text>
   <a xmlns:xlink="http://www.w3.org/1999/xlink"
      xlink:href="#block"
      xlink:title="block">
      <rect x="621" y="3" width="52" height="32"/>
      <rect x="619" y="1" width="52" height="32" class="nonterminal"/>
      <text class="nonterminal" x="629" y="21">block</text>
   </a>
   <path class="line"
         d="m17 17 h2 m0 0 h10 m42 0 h10 m0 0 h10 m76 0 h10 m0 0 h10 m26 0 h10 m20 0 h10 m0 0 h122 m-152 0 h20 m132 0 h20 m-172 0 q10 0 10 10 m152 0 q0 -10 10 -10 m-162 10 v12 m152 0 v-12 m-152 12 q0 10 10 10 m132 0 q10 0 10 -10 m-142 10 h10 m112 0 h10 m20 -32 h10 m26 0 h10 m0 0 h10 m36 0 h10 m0 0 h10 m48 0 h10 m0 0 h10 m24 0 h10 m0 0 h10 m52 0 h10 m3 0 h-3"/>
   <polygon points="691 17 699 13 699 21"/>
   <polygon points="691 17 683 13 683 21"/>
</svg>
