<?xml version="1.0" encoding="UTF-8"?>
<svg xmlns="http://www.w3.org/2000/svg" width="439" height="69">
   <defs>
      <style type="text/css">
    @namespace "http://www.w3.org/2000/svg";
    .line                 {fill: none; stroke: #332900; stroke-width: 1;}
    .bold-line            {stroke: #141000; shape-rendering: crispEdges; stroke-width: 2;}
    .thin-line            {stroke: #1F1800; shape-rendering: crispEdges}
    .filled               {fill: #332900; stroke: none;}
    text.terminal         {font-family: Verdana, Sans-serif;
                            font-size: 12px;
                            fill: #141000;
                            font-weight: bold;
                          }
    text.nonterminal      {font-family: Verdana, Sans-serif;
                            font-size: 12px;
                            fill: #1A1400;
                            font-weight: normal;
                          }
    text.regexp           {font-family: Verdana, Sans-serif;
                            font-size: 12px;
                            fill: #1F1800;
                            font-weight: normal;
                          }
    rect, circle, polygon {fill: #332900; stroke: #332900;}
    rect.terminal         {fill: #FFDB4D; stroke: #332900; stroke-width: 1;}
    rect.nonterminal      {fill: #FFEC9E; stroke: #332900; stroke-width: 1;}
    rect.text             {fill: none; stroke: none;}
    polygon.regexp        {fill: #FFF4C7; stroke: #332900; stroke-width: 1;}
  </style>
   </defs>
   <polygon points="9 17 1 13 1 21"/>
   <polygon points="17 17 9 13 9 21"/>
   <a xmlns:xlink="http://www.w3.org/1999/xlink"
      xlink:href="#identifier"
      xlink:title="identifier">
      <rect x="31" y="3" width="76" height="32"/>
      <rect x="29" y="1" width="76" height="32" class="nonterminal"/>
      <text class="nonterminal" x="39" y="21">identifier</text>
   </a>
   <rect x="127" y="3" width="26" height="32" rx="10"/>
   <rect x="125"
         y="1"
         width="26"
         height="32"
         class="terminal"
         rx="10"/>
   <text class="terminal" x="135" y="21">(</text>
   <a xmlns:xlink="http://www.w3.org/1999/xlink"
      xlink:href="#argument_list"
      xlink:title="argument_list">
      <rect x="193" y="35" width="108" height="32"/>
      <rect x="191" y="33" width="108" height="32" class="nonterminal"/>
      <text class="nonterminal" x="201" y="53">argument_list</text>
   </a>
   <rect x="341" y="3" width="26" height="32" rx="10"/>
   <rect x="339"
         y="1"
         width="26"
         height="32"
         class="terminal"
         rx="10"/>
   <text class="terminal" x="349" y="21">)</text>
   <rect x="387" y="3" width="24" height="32" rx="10"/>
   <rect x="385"
         y="1"
         width="24"
         height="32"
         class="terminal"
         rx="10"/>
   <text class="terminal" x="395" y="21">;</text>
   <path class="line"
         d="m17 17 h2 m0 0 h10 m76 0 h10 m0 0 h10 m26 0 h10 m20 0 h10 m0 0 h118 m-148 0 h20 m128 0 h20 m-168 0 q10 0 10 10 m148 0 q0 -10 10 -10 m-158 10 v12 m148 0 v-12 m-148 12 q0 10 10 10 m128 0 q10 0 10 -10 m-138 10 h10 m108 0 h10 m20 -32 h10 m26 0 h10 m0 0 h10 m24 0 h10 m3 0 h-3"/>
   <polygon points="429 17 437 13 437 21"/>
   <polygon points="429 17 421 13 421 21"/>
</svg>
