<?xml version="1.0" encoding="UTF-8"?>
<svg xmlns="http://www.w3.org/2000/svg" width="553" height="37">
   <defs>
      <style type="text/css">
    @namespace "http://www.w3.org/2000/svg";
    .line                 {fill: none; stroke: #332900; stroke-width: 1;}
    .bold-line            {stroke: #141000; shape-rendering: crispEdges; stroke-width: 2;}
    .thin-line            {stroke: #1F1800; shape-rendering: crispEdges}
    .filled               {fill: #332900; stroke: none;}
    text.terminal         {font-family: Verdana, Sans-serif;
                            font-size: 12px;
                            fill: #141000;
                            font-weight: bold;
                          }
    text.nonterminal      {font-family: Verdana, Sans-serif;
                            font-size: 12px;
                            fill: #1A1400;
                            font-weight: normal;
                          }
    text.regexp           {font-family: Verdana, Sans-serif;
                            font-size: 12px;
                            fill: #1F1800;
                            font-weight: normal;
                          }
    rect, circle, polygon {fill: #332900; stroke: #332900;}
    rect.terminal         {fill: #FFDB4D; stroke: #332900; stroke-width: 1;}
    rect.nonterminal      {fill: #FFEC9E; stroke: #332900; stroke-width: 1;}
    rect.text             {fill: none; stroke: none;}
    polygon.regexp        {fill: #FFF4C7; stroke: #332900; stroke-width: 1;}
  </style>
   </defs>
   <polygon points="9 17 1 13 1 21"/>
   <polygon points="17 17 9 13 9 21"/>
   <a xmlns:xlink="http://www.w3.org/1999/xlink"
      xlink:href="#package_declaration"
      xlink:title="package_declaration">
      <rect x="31" y="3" width="152" height="32"/>
      <rect x="29" y="1" width="152" height="32" class="nonterminal"/>
      <text class="nonterminal" x="39" y="21">package_declaration</text>
   </a>
   <a xmlns:xlink="http://www.w3.org/1999/xlink"
      xlink:href="#import_declarations"
      xlink:title="import_declarations">
      <rect x="203" y="3" width="146" height="32"/>
      <rect x="201" y="1" width="146" height="32" class="nonterminal"/>
      <text class="nonterminal" x="211" y="21">import_declarations</text>
   </a>
   <a xmlns:xlink="http://www.w3.org/1999/xlink"
      xlink:href="#function_declarations"
      xlink:title="function_declarations">
      <rect x="369" y="3" width="156" height="32"/>
      <rect x="367" y="1" width="156" height="32" class="nonterminal"/>
      <text class="nonterminal" x="377" y="21">function_declarations</text>
   </a>
   <path class="line"
         d="m17 17 h2 m0 0 h10 m152 0 h10 m0 0 h10 m146 0 h10 m0 0 h10 m156 0 h10 m3 0 h-3"/>
   <polygon points="543 17 551 13 551 21"/>
   <polygon points="543 17 535 13 535 21"/>
</svg>
